<svg width="25" height="25" viewBox="0 0 25 25" fill="none" xmlns="http://www.w3.org/2000/svg">
<path d="M12.5 24C18.8514 24 24 18.8514 24 12.5C24 6.14855 18.8514 1 12.5 1C6.14855 1 1 6.14855 1 12.5C1 14.34 1.4324 16.0788 2.19945 17.6209C2.40415 18.0303 2.472 18.4984 2.35355 18.9411L1.6693 21.501C1.60153 21.7544 1.60159 22.0211 1.66948 22.2744C1.73736 22.5277 1.87069 22.7587 2.05606 22.9442C2.24144 23.1297 2.47234 23.2631 2.72561 23.3312C2.97887 23.3992 3.24557 23.3995 3.49895 23.3318L6.05885 22.6464C6.50318 22.5342 6.97325 22.5886 7.3802 22.7994C8.97059 23.5912 10.7234 24.0023 12.5 24Z" fill="#C2C2C2" stroke="#C2C2C2" stroke-width="0.490057"/>
</svg>
